<svg id="mockup" xmlns="http://www.w3.org/2000/svg" width="17.045" height="12.34" viewBox="0 0 17.045 12.34">
  <path id="Path_1103" data-name="Path 1103" d="M4.48,122.2H0v7.772a.5.5,0,0,0,.5.5H4.48Zm0,0" transform="translate(0 -118.131)" fill="#fff"/>
  <path id="Path_1104" data-name="Path 1104" d="M17.8,3.069V.5a.5.5,0,0,0-.5-.5H4.251A3.5,3.5,0,0,0,.781,3.069Zm0,0" transform="translate(-0.755)" fill="#fff"/>
  <path id="Path_1105" data-name="Path 1105" d="M164.574,122.2v8.272h8.07a3.5,3.5,0,0,0,3.5-3.5V122.2Zm9,5.291a.5.5,0,0,1-.5.5h-4.721a.5.5,0,0,1,0-1h4.721A.5.5,0,0,1,173.572,127.49Zm-.666-1.813a.5.5,0,0,1-.5.5h-5.054a.5.5,0,0,1,0-1h5.054A.5.5,0,0,1,172.906,125.677Zm-6.552-2.312h5.387a.5.5,0,0,1,0,1h-5.387a.5.5,0,1,1,0-1Zm0,0" transform="translate(-159.096 -118.131)" fill="#fff"/>
</svg>
