<svg xmlns="http://www.w3.org/2000/svg" width="16.07" height="15.743" viewBox="0 0 16.07 15.743">
  <g id="growth" transform="translate(0 -2.37)">
    <path id="Path_1099" data-name="Path 1099" d="M61.765,113.023a.91.91,0,0,0-.91-.91H59.91a.91.91,0,0,0-.91.91v6.337a.91.91,0,0,0,.91.91h.946a.91.91,0,0,0,.91-.91Z" transform="translate(-54.922 -102.157)" fill="#fff"/>
    <path id="Path_1100" data-name="Path 1100" d="M2.765,144.092a.979.979,0,0,0-.979-.979H.979a.979.979,0,0,0-.979.979v4.056a.979.979,0,0,0,.979.979h.807a.979.979,0,0,0,.979-.979Z" transform="translate(0 -131.014)" fill="#fff"/>
    <path id="Path_1101" data-name="Path 1101" d="M119.765,78.023a.91.91,0,0,0-.91-.91h-.946a.91.91,0,0,0-.91.91V86.78a.91.91,0,0,0,.91.91h.946a.91.91,0,0,0,.91-.91Z" transform="translate(-108.912 -69.576)" fill="#fff"/>
    <path id="Path_1102" data-name="Path 1102" d="M164.495,4.954l-1.774-2.275a.732.732,0,0,0-1.195,0l-1.774,2.275a.551.551,0,0,0-.1.588.644.644,0,0,0,.609.31h.478V17.229a.889.889,0,0,0,.91.884h.952a.883.883,0,0,0,.9-.884V5.846l.481.007a.647.647,0,0,0,.612-.31A.55.55,0,0,0,164.495,4.954Z" transform="translate(-148.572)" fill="#fff"/>
  </g>
</svg>
